<?xml version="1.0" encoding="utf-8"?>
<!-- Generator: Adobe Illustrator 22.1.0, SVG Export Plug-In . SVG Version: 6.00 Build 0)  -->
<svg version="1.1" id="Capa_1" xmlns="http://www.w3.org/2000/svg" xmlns:xlink="http://www.w3.org/1999/xlink" x="0px" y="0px"
	 viewBox="0 0 80.1 80.1" style="enable-background:new 0 0 80.1 80.1;" xml:space="preserve">
<style type="text/css">
	.st0{fill:#000000;}
</style>
<g>
	<g>
		<path class="st0" d="M50.1,38.1H7c-1.2,0-2.2,0.4-3,1.3c-0.8,0.9-1.3,1.9-1.3,3.2v26.8c0,1.2,0.4,2.3,1.3,3.2
			c0.8,0.9,1.9,1.3,3,1.3h43.1c1.2,0,2.2-0.4,3-1.3c0.8-0.9,1.3-1.9,1.3-3.2V42.6c0-1.2-0.4-2.3-1.3-3.2
			C52.3,38.5,51.3,38.1,50.1,38.1z M30,56.8v7.7c0,0.8-0.6,1.5-1.4,1.5c-0.8,0-1.4-0.7-1.4-1.5v-7.7c-1.9-0.6-3.4-2.4-3.4-4.7
			c0-2.7,2.1-5,4.8-5c2.6,0,4.8,2.2,4.8,5C33.3,54.4,31.9,56.2,30,56.8z M71.5,12.4c-3.9-4.1-8.7-6.1-14.2-6.1
			c-5.5,0-10.3,2-14.2,6.1c-3.9,4.1-5.9,9-5.9,14.7v7.7h8.6v-7.7c0-3.3,1.1-6.1,3.4-8.4c2.2-2.3,5-3.5,8.1-3.5
			c3.2,0,5.9,1.2,8.1,3.5c2.2,2.3,3.4,5.1,3.4,8.4v4.7c0,0.8,0.3,1.5,0.9,2.1c0.6,0.6,1.2,0.9,2,0.9h2.9c0.8,0,1.5-0.3,2-0.9
			c0.6-0.6,0.9-1.3,0.9-2.1v-4.7C77.4,21.4,75.4,16.4,71.5,12.4z"/>
	</g>
</g>
</svg>
