<?xml version="1.0" encoding="utf-8"?>
<!-- Generator: Adobe Illustrator 22.1.0, SVG Export Plug-In . SVG Version: 6.00 Build 0)  -->
<svg version="1.1" id="Capa_1" xmlns="http://www.w3.org/2000/svg" xmlns:xlink="http://www.w3.org/1999/xlink" x="0px" y="0px"
	 viewBox="0 0 80.1 80.1" style="enable-background:new 0 0 80.1 80.1;" xml:space="preserve">
<style type="text/css">
	.st0{fill:#000000;}
</style>
<g>
	<g>
		<path class="st0" d="M0.9,77.9h8V49.2h-8V77.9z M74.5,45.3h-0.1c-1.2,0-2.3,0.4-3.2,1.2L56.8,59.6c-1,0.9-2.3,1.4-3.6,1.4H33.1
			c-1.1,0-2.1-0.4-2.8-1.1c-1.6-1.5-1.6-4,0-5.5c0.7-0.7,1.8-1.1,2.8-1.1H47c1.1,0,2.1-0.4,2.8-1.1c1.6-1.5,1.6-4,0-5.5
			c-0.7-0.7-1.8-1.1-2.8-1.1H25.4c-3,0-5.9,0.8-8.4,2.4l-6.7,4.1v23.5h29.3c0.8,0,1.6-0.1,2.4-0.2l10.9-1.6c3.3-0.5,6.4-2,8.8-4.4
			l16.1-15.9c0.9-0.9,1.4-2,1.4-3.3C79.2,47.3,77.1,45.3,74.5,45.3z M27.5,37.4L40.7,27l11.9,10.4l-4-14.4l10.6-7.8H46L40.7,2.2
			l-5.3,13.1H22.2l10.6,7.8L27.5,37.4z"/>
	</g>
</g>
</svg>
