<?xml version="1.0" encoding="utf-8"?>
<!-- Generator: Adobe Illustrator 22.1.0, SVG Export Plug-In . SVG Version: 6.00 Build 0)  -->
<svg version="1.1" id="Capa_1" xmlns="http://www.w3.org/2000/svg" xmlns:xlink="http://www.w3.org/1999/xlink" x="0px" y="0px"
	 viewBox="0 0 80.1 80.1" style="enable-background:new 0 0 80.1 80.1;" xml:space="preserve">
<style type="text/css">
	.st0{fill:#000000;}
</style>
<g>
	<g>
		<path class="st0" d="M19.8,16.3c3.1,0,5.5-2.5,5.5-5.6c0-3.1-2.5-5.6-5.5-5.6s-5.5,2.5-5.5,5.6C14.3,13.8,16.7,16.3,19.8,16.3z
			 M8.1,62.7l5.6-8.6c0.2-0.4,0.4-0.8,0.4-1.3l0.5-13.3c0-0.3,0-0.5-0.1-0.8l1.7-1.6l6.9,1.5l1.6,14.8c0,0.2,0.1,0.5,0.2,0.7h4
			c0.2-0.4,0.2-0.7,0.2-1.2l-1.8-16.4c-0.1-1-0.8-1.8-1.7-2l-6.4-1.4c0.8-1.9,2.1-4.8,3-7.3l2.6,3.7c0.2,0.3,0.4,0.5,0.7,0.6
			l5.8,2.9c0.3,0.1,0.6,0.2,0.9,0.2c0.7,0,1.4-0.4,1.8-1.1c0.5-1,0.1-2.2-0.9-2.7l-5.3-2.7l-3.7-5.2c-0.2-0.2-0.4-0.4-0.6-0.6
			c-0.2-0.3-0.4-0.5-0.7-0.7c-1.4-1.1-3.2-1.7-4.8-2.4c-0.9-0.3-1.7-0.6-2.6-0.9c-0.4-0.1-0.8-0.2-1.1-0.3c-0.9-0.2-1.8-0.7-2.6,0
			c0,0-6.5,5.2-6.5,5.2c-0.4,0.3-0.7,0.9-0.8,1.4l-0.7,8.2c-0.1,1.1,0.7,2.1,1.8,2.2c0.1,0,0.1,0,0.2,0c1,0,1.9-0.8,2-1.8l0.6-7.3
			l4-3.2L9.8,38.7l0,0.1c-0.1,0.2-0.1,0.4-0.1,0.7L9.2,51.9l-5.6,8.6c-0.4,0.6-0.5,1.4-0.3,2.1H8.1z M48,37.9v9.3H32.1v8.8H16.3v8.6
			H0.5v10.4h0.2L0.5,75l79.2-0.2v-37H48z"/>
	</g>
</g>
</svg>
